<svg xmlns="http://www.w3.org/2000/svg" viewBox="0 0 1200 720" role="img" aria-labelledby="title desc">
  <title id="title">Pocket Parade</title>
  <desc id="desc">Pocket Parade purple and orange wordmark</desc>
  <defs>
    <linearGradient id="purple" x1="0" x2="1" y1="0" y2="1">
      <stop offset="0" stop-color="#ff47ff"/>
      <stop offset="0.18" stop-color="#8f36ff"/>
      <stop offset="0.58" stop-color="#3b0c74"/>
      <stop offset="1" stop-color="#100027"/>
    </linearGradient>
    <linearGradient id="orange" x1="0" x2="1">
      <stop offset="0" stop-color="#ff2f00"/>
      <stop offset="1" stop-color="#ffd33d"/>
    </linearGradient>
    <filter id="glow" x="-12%" y="-18%" width="124%" height="136%">
      <feDropShadow dx="0" dy="8" stdDeviation="8" flood-color="#000" flood-opacity="0.45"/>
      <feDropShadow dx="0" dy="0" stdDeviation="5" flood-color="#ffffff" flood-opacity="0.9"/>
      <feDropShadow dx="0" dy="0" stdDeviation="3" flood-color="#d94cff" flood-opacity="0.9"/>
    </filter>
  </defs>
  <rect width="1200" height="720" fill="transparent"/>
  <g filter="url(#glow)">
    <path d="M93 520 C210 652 436 678 650 642 C852 608 1029 510 1108 340" fill="none" stroke="#fffaf0" stroke-width="42" stroke-linecap="round"/>
    <path d="M91 520 C212 650 438 670 648 633 C841 599 1015 505 1099 344" fill="none" stroke="url(#purple)" stroke-width="25" stroke-linecap="round"/>
    <path d="M96 535 C210 638 392 662 560 640" fill="none" stroke="url(#orange)" stroke-width="13" stroke-linecap="round"/>
    <path d="M118 458 C92 292 187 124 373 70 C546 20 681 72 690 185 C699 311 541 352 379 339" fill="none" stroke="#fffaf0" stroke-width="54" stroke-linecap="round"/>
    <path d="M122 459 C99 304 190 139 379 85 C535 40 665 82 672 185 C681 292 531 325 382 315" fill="none" stroke="url(#purple)" stroke-width="36" stroke-linecap="round"/>
    <path d="M130 454 C118 340 200 197 369 137 C481 97 589 112 635 159" fill="none" stroke="url(#orange)" stroke-width="13" stroke-linecap="round"/>
  </g>
  <g filter="url(#glow)">
    <text x="250" y="355" font-family="Arial Black, Impact, Arial, sans-serif" font-size="218" font-weight="900" font-style="italic" letter-spacing="-14" fill="#fffaf0" stroke="#fffaf0" stroke-width="24">Pocket</text>
    <text x="250" y="355" font-family="Arial Black, Impact, Arial, sans-serif" font-size="218" font-weight="900" font-style="italic" letter-spacing="-14" fill="url(#purple)" stroke="#22003f" stroke-width="5">Pocket</text>
    <text x="258" y="555" font-family="Arial Black, Impact, Arial, sans-serif" font-size="208" font-weight="900" font-style="italic" letter-spacing="-12" fill="#fffaf0" stroke="#fffaf0" stroke-width="24">Parade</text>
    <text x="258" y="555" font-family="Arial Black, Impact, Arial, sans-serif" font-size="208" font-weight="900" font-style="italic" letter-spacing="-12" fill="url(#purple)" stroke="#22003f" stroke-width="5">Parade</text>
  </g>
  <g filter="url(#glow)">
    <path d="M303 251 l18 43 43 18 -43 18 -18 43 -18 -43 -43 -18 43 -18z" fill="url(#orange)" stroke="#fffaf0" stroke-width="10"/>
    <path d="M714 118 l17 40 40 17 -40 17 -17 40 -17 -40 -40 -17 40 -17z" fill="url(#orange)" stroke="#fffaf0" stroke-width="10"/>
    <path d="M1065 352 l14 33 33 14 -33 14 -14 33 -14 -33 -33 -14 33 -14z" fill="#8f36ff" stroke="#fffaf0" stroke-width="9"/>
    <path d="M568 603 l54 42 54 -42" fill="none" stroke="url(#orange)" stroke-width="20" stroke-linecap="round" stroke-linejoin="round"/>
    <path d="M568 603 l54 42 54 -42" fill="none" stroke="#fffaf0" stroke-width="8" stroke-linecap="round" stroke-linejoin="round"/>
  </g>
</svg>
